<?xml version="1.0" encoding="utf-8"?>
<!-- Generator: Adobe Illustrator 25.4.0, SVG Export Plug-In . SVG Version: 6.00 Build 0)  -->
<svg version="1.1" id="Capa_1" xmlns="http://www.w3.org/2000/svg" xmlns:xlink="http://www.w3.org/1999/xlink" x="0px" y="0px"
	 viewBox="0 0 512 512" style="enable-background:new 0 0 512 512;" xml:space="preserve">
<style type="text/css">
	.st0{fill:#FFFFFF;}
</style>
<path class="st0" d="M505.7,88.9c-1-2.4-2.1-4.7-3.4-7c-3.1-5.7-6.8-10.9-11.1-15.7c-3.4-3.8-7.3-7.3-11.4-10.3
	c-1-0.8-2.1-1.5-3.1-2.2c-2.1-1.4-4.3-2.8-6.6-4c-3.4-1.8-6.9-3.5-10.6-4.8c-6.1-2.2-12.6-3.8-19.3-4.4c-2.7-0.3-5.4-0.4-8.2-0.4
	h-25V20c0-11-9-20-20-20c-0.2,0-0.3,0-0.5,0c-0.2,0-0.3,0-0.5,0c-11,0-20,9-20,20v20h-89V20c0-11-9-20-20-20c-0.3,0-0.7,0-1,0.1
	c-0.3,0-0.7-0.1-1-0.1c-11,0-20,9-20,20v20h-89V20c0-11-9-20-20-20c-0.2,0-0.3,0-0.5,0c-0.2,0-0.3,0-0.5,0c-11,0-20,9-20,20v20H80
	c-2.8,0-5.5,0.1-8.2,0.4c-6.7,0.7-13.2,2.2-19.3,4.4c-3.7,1.3-7.2,3-10.6,4.8c-2.3,1.2-4.5,2.6-6.6,4c-1.1,0.7-2.1,1.5-3.1,2.2
	c-4.1,3.1-7.9,6.5-11.4,10.3c-4.3,4.7-8.1,10-11.1,15.7c-1.2,2.3-2.4,4.6-3.4,7C2.2,98.5,0,109,0,120v212v100c0,44.1,35.9,80,80,80
	h352c2.8,0,5.5-0.1,8.2-0.4c6.7-0.7,13.2-2.2,19.3-4.4c3.7-1.3,7.2-3,10.6-4.8c2.3-1.2,4.5-2.6,6.6-4c1.1-0.7,2.1-1.5,3.1-2.2
	c4.1-3.1,7.9-6.5,11.4-10.3c4.3-4.7,8.1-10,11.1-15.7c1.2-2.3,2.4-4.6,3.4-7c4.1-9.6,6.3-20.1,6.3-31.1V332V120
	C512,109,509.8,98.5,505.7,88.9z M472,312H356V192h116V312z M43.1,104.4c0.5-1.2,1.1-2.4,1.7-3.5c1.5-2.8,3.4-5.5,5.6-7.8
	c1.7-1.9,3.6-3.6,5.7-5.2c0.5-0.4,1-0.8,1.6-1.1c1.1-0.7,2.2-1.4,3.3-2c1.7-0.9,3.5-1.7,5.3-2.4c3.1-1.1,6.3-1.9,9.7-2.2
	c1.3-0.1,2.7-0.2,4.1-0.2h25v20c0,11,9,20,20,20c0.2,0,0.3,0,0.5,0c0.2,0,0.3,0,0.5,0c11,0,20-9,20-20V80h89v20c0,11,9,20,20,20
	c0.3,0,0.7,0,1-0.1c0.3,0,0.7,0.1,1,0.1c11,0,20-9,20-20V80h89v20c0,11,9,20,20,20c0.2,0,0.3,0,0.5,0c0.2,0,0.3,0,0.5,0
	c11,0,20-9,20-20V80h25c1.4,0,2.7,0.1,4.1,0.2c3.4,0.3,6.6,1.1,9.7,2.2c1.8,0.7,3.6,1.5,5.3,2.4c1.1,0.6,2.2,1.3,3.3,2
	c0.5,0.4,1.1,0.7,1.6,1.1c2.1,1.5,4,3.3,5.7,5.2c2.2,2.4,4,5,5.6,7.8c0.6,1.1,1.2,2.3,1.7,3.5c2,4.8,3.1,10,3.1,15.6v32H40v-32
	C40,114.5,41.1,109.2,43.1,104.4z M156,472H80c-22.1,0-40-17.9-40-40v-80h116V472z M156,312H40V192h116V312z M316,472H196V352h120
	V472z M316,312H196V192h120V312z M468.9,447.6c-0.5,1.2-1.1,2.4-1.7,3.5c-1.5,2.8-3.4,5.5-5.6,7.8c-1.7,1.9-3.6,3.6-5.7,5.2
	c-0.5,0.4-1,0.8-1.6,1.1c-1.1,0.7-2.2,1.4-3.3,2c-1.7,0.9-3.5,1.7-5.3,2.4c-3.1,1.1-6.3,1.9-9.7,2.2c-1.3,0.1-2.7,0.2-4.1,0.2h-76
	V352h116v80C472,437.5,470.9,442.8,468.9,447.6z"/>
</svg>
