<svg xmlns="http://www.w3.org/2000/svg" viewBox="0 0 41.38 41.38"><defs><style>.cls-1{fill:#fff;}</style></defs><title>Fichier 10</title><g id="Calque_2" data-name="Calque 2"><g id="Layer_1" data-name="Layer 1"><path class="cls-1" d="M30,0H11.41A11.41,11.41,0,0,0,0,11.41V30A11.41,11.41,0,0,0,11.41,41.38H30A11.41,11.41,0,0,0,41.38,30V11.41A11.41,11.41,0,0,0,30,0ZM38,29.93A8.11,8.11,0,0,1,29.93,38H11.45a8.11,8.11,0,0,1-8.11-8.11V11.45a8.11,8.11,0,0,1,8.11-8.11H29.93A8.11,8.11,0,0,1,38,11.45Z"/><path class="cls-1" d="M20.69,9.79A10.91,10.91,0,1,0,31.6,20.69,10.9,10.9,0,0,0,20.69,9.79Zm0,18a7.11,7.11,0,1,1,7.11-7.11A7.11,7.11,0,0,1,20.69,27.8Z"/><path class="cls-1" d="M34.41,9.42A2.45,2.45,0,1,1,32,7,2.45,2.45,0,0,1,34.41,9.42Z"/></g></g></svg>