<svg xmlns="http://www.w3.org/2000/svg" viewBox="0 0 688.75 139.19"><defs><style>.cls-1{fill:#fff;}</style></defs><g id="Calque_2" data-name="Calque 2"><g id="Calque_1-2" data-name="Calque 1"><polygon class="cls-1" points="668.05 78.9 688.75 78.9 688.75 53.07 668.05 78.9"/><path class="cls-1" d="M642.17,71.85,683.6,21H644.46V43.34l-21.81,16.4C631.24,62,638,65.93,642.17,71.85Z"/><path class="cls-1" d="M621.84,118.21h66.91v-16.8H643.56C639.44,109.67,631.53,115.37,621.84,118.21Z"/><path class="cls-1" d="M602.51,77.65H588.75l-4.3-14.44,21.39-17H569.72v0h-.06a28.73,28.73,0,0,0-7.89-14.12c-6.31-6.31-16.23-10.47-31.39-11-1.17,0-2.37-.07-3.61-.07H396.94v16C389.91,26.3,376.15,21,358.61,21H314.86v79.35l-33.5-80H249.14l-13,31.06C234.09,31.1,217.08,21,192.87,21H176.56l3.74-8.68a4.13,4.13,0,0,0,.25-.75c.67-2.3.84-6.37-2.28-9.21-.23-.21-.47-.4-.72-.59l-.25-.18-.46-.29-.32-.18L176,.85l-.29-.13c-.16-.06-.31-.13-.44-.17L175,.43l-.44-.12L174.2.23l-.42-.09-.28,0-.46,0-.25,0-.48,0a9.48,9.48,0,0,0-1.06,0l-.16,0q-.43,0-.81.12l-.06,0-.1,0c-.26.05-.5.12-.68.17l-.16,0a7.31,7.31,0,0,0-.72.27l-.34.16L5.28,72.35A8.77,8.77,0,0,0,.63,77.16a8.49,8.49,0,0,0-.4,1.3A8.69,8.69,0,0,0,0,81.18a9.27,9.27,0,0,0,.66,2.71A8.91,8.91,0,0,0,6.76,89l34.81,8.43,17,36.3a9,9,0,0,0,7.13,5.39h.06l.66,0a8.35,8.35,0,0,0,1.22-.09l.18,0a9.55,9.55,0,0,0,1-.24l.21-.07a7.32,7.32,0,0,0,.94-.37l.08,0,.07,0c.26-.13.51-.27.73-.4l.14-.09c.23-.15.43-.29.62-.44l.08-.06c.17-.13.32-.26.46-.39l.07-.06.31-.3,26.23-23.14,25.47,8.35.11,0a10.37,10.37,0,0,0,1.21.28l.21,0a7.75,7.75,0,0,0,1,.09,5,5,0,0,0,.55,0l.79-.06.21,0a7.74,7.74,0,0,0,1.05-.23l.28-.08a9.76,9.76,0,0,0,1-.38l.15-.08a8.45,8.45,0,0,0,.87-.47l.19-.12a8,8,0,0,0,.91-.68L133,120a9.13,9.13,0,0,0,.7-.69l.16-.18c.23-.28.46-.59.65-.87l.16-.27a7.48,7.48,0,0,0,.57-1.08l13.91-32.26v33.56h32.5V91.82h10.56c12.28,0,22.75-2.74,30.4-8.06l-14.42,34.45h34.73l5-13h34l5.14,13h60.3V91.82h10.56c17.89,0,31.9-5.81,39-16.93v43.32H511.77V90.43H520l18.34,27.78h50.51a55.1,55.1,0,0,1-22.43-11.32l-2.16-3.16,18.42-19.58c6.81,6,14,9.34,21.53,9.34,7.23,0,11.12-3.2,11.12-7.78v-.28C615.29,80.71,611.12,77.65,602.51,77.65ZM22.08,79.05,152.49,19.59,47,85.08ZM71.24,92.61l0,0s0,.12-.08.17a5.82,5.82,0,0,0-.4.45,3.8,3.8,0,0,0-.81,1.6l-4.76,21.78L57,99.32l-3.8-8.12,93.13-62.54Zm53.48,15.33L82.41,94.05l82.16-74.46Zm79.54-50c0,6.94-5.55,10.7-13.89,10.7h-8.75V47h8.89c8.61,0,13.75,3.61,13.75,10.69ZM256.08,82.1,265,58.49l8.89,23.61ZM370,57.93c0,6.94-5.55,10.7-13.89,10.7h-8.75V47h8.89C364.86,47,370,50.57,370,57.65ZM479.26,91.54H428.88V79h38.91V59.48H428.88V47.65h50.38Zm59-33.75c0,6-4.72,9.45-12.5,9.45h-14v-19h14.17c7.5,0,12.36,3,12.36,9.3Z"/></g></g></svg>