<?xml version="1.0" encoding="utf-8"?>
<!-- Generator: Adobe Illustrator 23.0.4, SVG Export Plug-In . SVG Version: 6.00 Build 0)  -->
<svg version="1.1" id="Calque_1" xmlns="http://www.w3.org/2000/svg" xmlns:xlink="http://www.w3.org/1999/xlink" x="0px" y="0px"
	 viewBox="0 0 805.1 355.6" style="enable-background:new 0 0 805.1 355.6;" xml:space="preserve">
<style type="text/css">
	.st0{fill:#FFFFFF;}
</style>
<title>Fichier 10</title>
<g>
	<g id="Calque_1-2">
		<path class="st0" d="M336.8,0.2c1.5,0,2.3,0.7,2.3,2.2V12c0,1.5-0.8,2.2-2.3,2.2H293c-2.2,0-4.3,0.2-6.5,0.6
			c-1.5,0.3-3,1.1-4.1,2.2c-1.1,1.2-1.9,2.6-2.1,4.2c-0.4,2.2-0.6,4.4-0.6,6.6v1h56.6c1.1-0.1,2.1,0.7,2.2,1.8c0,0.1,0,0.3,0,0.4
			v7.9c0.1,1.1-0.7,2.1-1.8,2.2c-0.1,0-0.3,0-0.4,0h-56.6v1.7c0,2.2,0.2,4.4,0.6,6.6c0.3,1.6,1,3,2.1,4.2c1.1,1.1,2.6,1.9,4.1,2.2
			c2.1,0.5,4.3,0.7,6.5,0.7h43.8c1.5,0,2.3,0.7,2.3,2.2v9.5c0,1.5-0.8,2.2-2.3,2.2h-44.1c-4.3,0.1-8.7-0.4-12.9-1.4
			c-3.2-0.8-6.2-2.3-8.7-4.6c-2.3-2.3-4-5.1-4.9-8.2c-1.1-4-1.6-8.1-1.6-12.3V26.7c-0.1-4.1,0.4-8.3,1.6-12.2
			c0.9-3.1,2.6-5.9,4.9-8.2c2.5-2.2,5.4-3.8,8.7-4.6c4.2-1,8.6-1.5,12.9-1.5H336.8z"/>
		<path class="st0" d="M427.8,0.2c1.1-0.1,2.1,0.7,2.2,1.8c0,0.2,0,0.3,0,0.5V12c0.1,1.1-0.7,2.1-1.8,2.2c-0.1,0-0.3,0-0.4,0h-50.2
			c-1.9,0-3.3,0.5-4.1,1.5c-0.9,1.2-1.3,2.6-1.2,4.1v3.4c0,3.7,1.7,5.6,5.2,5.6H415c5.8,0,10.2,1.5,13.1,4.5c2.9,3,4.4,7.2,4.4,12.7
			v8c0,4.9-1.4,8.8-4.3,11.8s-7.4,4.5-13.4,4.5h-55.5c-1.5,0-2.3-0.7-2.3-2.2v-9.5c0-1.5,0.8-2.2,2.3-2.2H412c1.9,0,3.3-0.5,4.1-1.5
			c0.9-1.2,1.3-2.6,1.2-4.1v-4.1c0-3.7-1.7-5.6-5.2-5.6h-37.6c-5.8,0-10.2-1.5-13.1-4.5c-2.9-3-4.4-7.2-4.4-12.8v-7.3
			c0-4.9,1.4-8.8,4.3-11.8s7.4-4.5,13.4-4.5H427.8z"/>
		<path class="st0" d="M508.4,0.2c7.7,0,13.2,1.7,16.5,5.2s5,8.6,5,15.4v7.4c0,6.8-1.7,12-5,15.4s-8.8,5.2-16.5,5.2h-41.5v19.2
			c0.1,1.1-0.7,2.1-1.8,2.2c-0.1,0-0.3,0-0.4,0h-10.8c-1.5,0-2.3-0.7-2.3-2.2V3.2c-0.2-1.5,0.8-2.8,2.3-3c0.2,0,0.5,0,0.7,0
			L508.4,0.2z M466.9,35.7h38.4c3.4,0,5.8-0.7,7.2-2.2c1.4-1.5,2.1-3.7,2.1-6.7V23c0-3-0.7-5.2-2.1-6.7s-3.8-2.2-7.2-2.2h-37.1
			c-0.9,0-1.3,0.4-1.3,1.2L466.9,35.7z"/>
		<path class="st0" d="M581.8,0.2c2.2-0.1,4.5,0.5,6.4,1.5c1.7,1,3.4,3.1,5.1,6.1l33.2,60.2c0.3,0.5,0.4,1.1,0.2,1.7
			c-0.2,0.4-0.7,0.7-1.5,0.7h-12.7c-1,0.1-1.9-0.4-2.3-1.3l-7.1-12.9h-47.1l-6.9,12.9c-0.4,0.9-1.3,1.4-2.3,1.3h-13
			c-0.9,0-1.4-0.2-1.5-0.7c-0.2-0.6-0.1-1.2,0.2-1.7l32.8-60.2c1.7-3,3.3-5,4.9-6.1c1.7-1.1,3.6-1.6,5.6-1.5H581.8z M562.4,44.5
			h34.5l-15.9-29.4c-0.2-0.4-0.6-0.7-1.1-0.7h-0.6c-0.5,0-0.9,0.3-1.1,0.7L562.4,44.5z"/>
		<path class="st0" d="M711,0.2c1.1-0.1,2.1,0.7,2.2,1.8c0,0.1,0,0.3,0,0.4v9.8c0,1.5-0.7,2.3-2.2,2.3h-44.6c-2.2,0-4.3,0.2-6.5,0.6
			c-1.5,0.3-2.9,1.1-4.1,2.2c-1.1,1.2-1.8,2.6-2.2,4.2c-0.5,2.2-0.7,4.4-0.7,6.6v14.2c0,2.2,0.2,4.5,0.7,6.7c0.3,1.6,1.1,3,2.2,4.2
			c1.1,1.1,2.5,1.9,4.1,2.2c2.1,0.5,4.3,0.7,6.5,0.7H711c1.1-0.1,2.1,0.7,2.2,1.8c0,0.1,0,0.3,0,0.4v9.8c0.1,1.1-0.7,2.1-1.8,2.2
			c-0.1,0-0.3,0-0.4,0h-45.2c-4.4,0.1-8.7-0.4-12.9-1.4c-3.2-0.8-6.2-2.3-8.7-4.6c-2.3-2.3-4-5.1-4.9-8.2c-1.1-4-1.6-8.1-1.6-12.3
			V26.7c-0.1-4.1,0.4-8.3,1.6-12.2c0.9-3.1,2.6-5.9,4.9-8.2c2.5-2.2,5.4-3.8,8.7-4.6c4.2-1,8.6-1.5,12.9-1.5H711z"/>
		<path class="st0" d="M802.8,0.2c1.5,0,2.3,0.7,2.3,2.2V12c0,1.5-0.8,2.2-2.3,2.2H759c-2.2,0-4.3,0.2-6.5,0.6
			c-1.5,0.3-3,1.1-4.1,2.2c-1.1,1.2-1.9,2.6-2.2,4.2c-0.4,2.2-0.6,4.4-0.6,6.6v1h56.6c1.1-0.1,2.1,0.7,2.2,1.8c0,0.1,0,0.3,0,0.4
			v7.9c0.1,1.1-0.7,2.1-1.8,2.2c-0.1,0-0.3,0-0.4,0h-56.6v1.7c0,2.2,0.2,4.4,0.6,6.6c0.3,1.6,1,3,2.2,4.2c1.1,1.1,2.6,1.9,4.1,2.2
			c2.1,0.5,4.3,0.7,6.5,0.7h43.8c1.5,0,2.3,0.7,2.3,2.2v9.5c0,1.5-0.8,2.2-2.3,2.2h-44.1c-4.4,0.1-8.7-0.4-12.9-1.4
			c-3.2-0.8-6.2-2.3-8.7-4.6c-2.3-2.3-4-5.1-4.9-8.2c-1.1-4-1.6-8.1-1.6-12.3V26.7c-0.1-4.1,0.4-8.3,1.6-12.2
			c0.9-3.1,2.6-5.9,4.9-8.2c2.5-2.2,5.4-3.8,8.7-4.6c4.2-1,8.6-1.5,12.9-1.5H802.8z"/>
		<path class="st0" d="M214,175.9c-9.4,31.1-27.2,57.4-53.3,78.9S107.2,287,78.8,287c-30.2,0-52.4-10.9-66.3-32.7
			s-16.1-48.7-6.5-80.6c9.9-32.6,27.9-59.2,54-80s54.7-31.2,85.5-31.1c29.1,0,50.3,10.8,63.4,32.6
			C222.1,116.8,223.8,143.7,214,175.9z M176.7,177.5c11.6-38.3,12.4-68.1,2.5-89.5c-6.2-13.4-18.6-20.1-37-20.1
			c-17.5,0-32.7,5.1-45.4,15.4c-23.5,18.8-41.6,49.5-54.5,92c-10.2,33.7-11.9,59.8-5.2,78.4s21.3,27.9,43.6,27.9
			c20.8,0,39.1-8.8,55-26.4C153.2,235.8,166.9,209.9,176.7,177.5L176.7,177.5z"/>
		<path class="st0" d="M342.6,282.1c-0.4,1.4-2.1,2.1-5.1,2.1h-55.3c-2.6,0-3.7-0.7-3.4-2c0.3-0.9,1.1-1.6,2.1-1.7
			c1.2-0.2,5.1-0.4,11.7-0.6c3.8-0.2,6.2-0.7,7-1.5c0.8-0.8,1.9-3.8,3.4-9l14.5-53.5c5.5-20.2,8-32.3,7.4-36.2
			c-1.1-8.3-6.8-12.5-17-12.5c-10,0-19.5,4.1-28.6,12.2c-2.8,2.7-4.8,6.2-5.7,10l-23.6,86.8c-0.6,2.2,1.2,3.4,5.4,3.6l9.1,0.3
			c2,0,2.8,0.6,2.5,2s-1.7,2-4.1,2h-54.7c-3,0-4.3-0.6-4-1.7c0.3-1.1,2.3-1.9,6-2.2h7.5c3,0,5-0.6,5.9-1.9l2-4.2l16.4-60.6
			c5.7-21.1,8.7-32.8,8.9-35s-2-3.3-6.6-3.3h-8.7c-4,0-5.8-0.7-5.4-2.1c0.5-1.8,2.8-2.7,7-2.7c6.9-0.3,13.7-1.3,20.4-3.1
			c7.5-1.9,13-4,16.5-6.4c2.2-1.5,3.8-2.2,4.8-2.2c1.4,0,1.6,1.8,0.7,5.3l-3.6,13.4c13.8-12.4,28.9-18.7,45.3-18.7
			c14.4,0,23.5,4.9,27.2,14.8c2.1,5.6,1,16.2-3.2,31.8l-17.2,63.6c-1.6,5.9-2.2,9.2-1.8,9.8c0.9,1.1,3.7,1.7,8.3,1.7h5.4
			C342.1,280.3,343,280.9,342.6,282.1z"/>
		<path class="st0" d="M517.2,175.2c-2.3,8.6-7.6,12.8-15.8,12.8c-2.6,0.1-5.1-0.9-6.9-2.6c-1.7-1.5-2.5-3.8-1.8-6
			c0.5-1.2,1.1-2.4,1.9-3.5c0.8-1.2,1.5-2.4,1.9-3.8c0.7-2.4-0.4-3.6-3.2-3.6c-2.4,0-5,1.2-7.9,3.5c-2.8,2.3-4.6,4.7-5.2,7.1
			c-0.1,0.6-0.5,3.7-1.1,9.5c-0.3,4.4-1,8.8-2.1,13.1c-3.4,12.7-11,23.3-22.7,31.8c-11.1,8.4-24.7,12.9-38.6,12.8
			c-3.6,0-9.8-1.4-18.7-4.2c-1.6-0.6-3.2-0.9-4.8-1.1c-4.2,0-8.4,1.6-12.7,4.7c-4.3,3.2-6.9,6.6-7.9,10.3c-2.6,9.7,2.4,14.5,15,14.5
			c4.8,0,12.7-0.8,23.8-2.5c7.6-1.2,15.3-1.9,23.1-2c12.2,0,21,3,26.3,8.9c5.3,5.9,6.5,14.2,3.6,24.8c-4.3,16-15.3,29.3-32.9,39.9
			s-37.6,15.9-60,15.9c-16.6,0-28.9-3.1-36.7-9.4c-7.8-6.2-10.2-14.8-7.3-25.8c2.9-10.6,9.4-18.6,19.7-24c5.1-2.6,12.8-4.9,22.9-7
			c-12.8-5.2-17.7-13.2-14.8-24c3.6-13.4,15.4-22.7,35.2-27.9c-9.7-8.7-12.6-20.2-8.7-34.5c3.4-13.1,11.4-24.5,22.6-32.2
			c11.4-8.1,24.6-12.1,39.6-12.1c8.2,0,14.6,1,19.1,3.1c4.6,2,9.4,6.1,14.5,12.2c8.8-8.7,17.9-13.1,27.3-13.1
			C515.4,160.9,519.8,165.7,517.2,175.2z M448,309.6c4.2-15.4-3.5-23.1-23.1-23.1c-5.6,0-14,0.8-25.4,2.5
			c-11.3,1.7-19.7,2.5-25.1,2.5c-11.5,5-19,13.9-22.5,26.5c-2.6,9.5-1,17.1,4.7,22.9c5.7,5.8,14.6,8.6,26.5,8.6
			c14.6,0.1,29-3.9,41.5-11.6C437.2,330.2,445,320.7,448,309.6z M453.9,202.8c7.3-27,3-40.4-13.1-40.4c-15.6,0-26.8,12.6-33.6,37.7
			c-7.7,28.3-3.2,42.4,13.4,42.4C435.6,242.4,446.7,229.2,453.9,202.8L453.9,202.8z"/>
		<path class="st0" d="M548.7,281.7c-0.5,1.7-2,2.5-4.6,2.5h-3.6c-0.4,0-5.7-0.2-15.8-0.6h-9.3c-1.6,0-9.7,0.1-24.1,0.4
			c-1.2,0.1-2.4,0.1-3.6,0.1c-3,0.2-4.3-0.6-3.9-2.4c0.3-1.2,1.6-1.8,3.8-1.8h7.8c5.6,0,8.7-1.1,9.3-3.3c0.5-1.1,2.6-8.4,6.2-21.8
			L551.1,111c1.7-6.1,2.4-9.5,2.1-10c-0.2-1.5-1.6-2.2-4.2-2.2h-10.8c-2.8,0-4-0.8-3.6-2.4c0.4-1.4,3.1-2.2,8.2-2.4
			c9.7-0.6,19.3-2.6,28.4-6.1l7-2.8h0.1l0,0c1-0.3,2.1,0.2,2.4,1.2c0.1,0.2,0.1,0.4,0.1,0.6c-0.3,5.3-1.8,12.5-4.5,21.8L564,154.2
			l-31.8,113c-1,3.3-1.8,6.6-2.4,9.9c-0.1,1,0.6,1.9,1.5,2.1c0.2,0.2,3.8,0.4,11,0.5C547,279.7,549.1,280.4,548.7,281.7z"/>
		<path class="st0" d="M680.5,253.2c-0.5,1.9-2.9,5.2-7.3,9.9c-3.8,4.2-8.1,8.1-12.6,11.6c-10.8,8.2-23.5,12.3-37.9,12.3
			c-18,0-31.4-6-40.3-18.1s-10.9-27-6-44.9c4.8-18.3,15.3-34.6,29.9-46.6c14.9-12.4,31-18.7,48.2-18.7c14.2,0,25.1,3.9,32.6,11.6
			s9.9,17.6,7.3,29.7c-8.6,1-17.2,1.4-25.8,1.1h-21c-1.4,0-13.5,0.3-36.3,0.8c-2.5,5.7-4.6,11.5-6.2,17.5
			c-5.1,18.7-5.1,33.1-0.2,43.2c5,10.1,14.5,15.1,28.5,15.1c8,0,14.9-1.7,20.6-5c5.7-3.3,12.7-9.7,20.8-19.2
			c0.9-1.3,2.3-2.1,3.9-2.2C680.2,251.3,680.9,251.9,680.5,253.2z M669.8,196.4c5.3-22.3-0.3-33.5-16.8-33.5
			c-16.2,0-29.4,11.2-39.4,33.5H669.8z"/>
		<path class="st0" d="M790.6,248.1c-2.9,10.8-9.6,20-20.1,27.5S748.9,287,737.1,287c-6.8,0-14.4-2.2-22.9-6.7
			c-1.9-1.2-4.1-1.9-6.3-2c-2.8,0-5.4,1.8-7.7,5.3c-1.4,2.3-2.8,3.4-4.1,3.4c-1.4,0-1.9-0.7-1.5-2.2l0.9-3.3l4.4-16.4l1.8-6.7
			l2.1-7.8l0.8-3.1c0.6-2,1.5-3.1,2.9-3.1c1.6,0,2.2,1,1.9,3.1c-1.1,8.6-0.4,15.4,2.3,20.2c5.4,9.8,14.8,14.6,28.2,14.6
			c6.8,0.1,13.5-1.9,19-5.9c5.4-3.8,9.2-9.3,10.8-15.7c2-7.3,1.1-13-2.8-17.3c-1.8-2.1-3.9-3.8-6.3-5.2c-2-1-8.1-3.5-18.3-7.4
			c-20.1-7.8-28-19.6-23.8-35.2c2.8-10.4,9-19.2,18.5-26.3c9.5-7.1,19.8-10.6,30.9-10.7c4,0,9.7,1.1,17,3.3c1.7,0.5,3.4,0.8,5.1,0.8
			c3.9,0.2,7.6-2,9.3-5.6c1.1-1.9,2.2-2.8,3.4-2.8c1.4,0,1.9,0.8,1.5,2.2l-0.5,1.7l-3.2,11.7c-1.4,4.5-2.8,11.6-4.3,21.5l-0.2,0.6
			c-0.3,1.4-1.6,2.4-3,2.2c-1.2,0-1.9-2.8-2.2-8.4c-0.4-6.7-2.8-12.2-7.1-16.3c-4.4-4.1-10.2-6.2-17.4-6.2c-6.6-0.1-13.1,2-18.5,5.9
			c-5.2,3.5-9,8.8-10.6,14.8c-2.5,9.3,2.3,16.4,14.4,21.2c18.8,7.7,30.3,14,34.5,19C791.7,230.9,793.2,238.8,790.6,248.1z"/>
		<path class="st0" d="M223.7,81.4c4.4-19.2,4.2-36-0.4-50.3c-6.9-21.3-22-31.7-45.2-31.1c-24.6,0.6-49.1,11.4-73.3,32.6
			C92.2,43.6,81.1,56.2,71.6,70c25.2-16.1,52.2-24.1,81.1-24.1C185.1,45.9,208.8,57.7,223.7,81.4z"/>
		<path class="st0" d="M523.7,95c0.2-0.8,0.6-1.6,1.2-2.3H268.1c-1.7,0-3.1,1.4-3.1,3.1s1.4,3.1,3.1,3.1h255.6
			C523.3,97.6,523.3,96.3,523.7,95z"/>
		<path class="st0" d="M801.8,92.7H593c-0.3,1.9-0.7,4-1.2,6.2h210c1.7,0,3.1-1.4,3.1-3.1S803.5,92.7,801.8,92.7L801.8,92.7z"/>
	</g>
</g>
</svg>
