<svg xmlns="http://www.w3.org/2000/svg" viewBox="0 0 487.8 487.8"><defs><style>.cls-1{fill:#fff;}</style></defs><title>Fichier 10</title><g id="Calque_2" data-name="Calque 2"><g id="Layer_1" data-name="Layer 1"><path class="cls-1" d="M176.89,123.29c0,.15,0,.39.05.39,4.7,2.53,6.48,7.32,8.85,11.58,5.64,10,11.18,20.17,16.87,30.16,1.83,3.27,4.2,6.28,6.18,9.55,3.26,5.44,3.16,9-1.14,13.45s-9.2,8.36-13.85,12.61c-3.56,3.22-7.22,6.28-10.63,9.65-3,2.81-4.15,6.37-2.08,10.28,4,7.32,7.87,14.74,12.32,21.76a166.65,166.65,0,0,0,60.73,57.17c4.2,2.33,8.36,4.8,12.71,6.93a8.05,8.05,0,0,0,10.48-1.93c4.75-5.25,9.25-10.83,14.05-16.08a114.23,114.23,0,0,1,10.28-9.89c3.07-2.67,6.73-2.32,10-.44,8.21,4.84,16.32,9.94,24.53,14.69,6.43,3.7,13,7.12,19.49,10.73,1.28.69,2.47,1.58,3.71,2.22,4.15,2.28,5.69,5.69,4.75,10.34s-1.83,9.59-2.77,14.34c-1.69,8-6.33,13.9-12.86,18.5-9.35,6.62-19.34,11.72-30.66,14a60.66,60.66,0,0,1-31.06-1.73c-17.51-5.59-35-11.37-51.09-20.47-12.21-6.88-23.29-15.48-33.83-24.78A337.31,337.31,0,0,1,173.28,288c-17.31-19.43-31.6-40.7-39.61-65.77-2.62-8.31-5.94-16.37-8.21-24.78-4.11-15.18-2-29.87,4.79-43.91a91.34,91.34,0,0,1,12.07-18.45A25.27,25.27,0,0,1,156.17,127c4.45-1.09,9.05-1.93,13.55-2.87.35-.1.59-.54.84-.79Z"/><path class="cls-1" d="M243.9,38.19c113.61,0,205.71,92.1,205.71,205.71S357.51,449.61,243.9,449.61,38.19,357.51,38.19,243.9,130.29,38.19,243.9,38.19M243.9,0a244,244,0,0,0-95,468.62A244,244,0,0,0,338.85,19.18,242.41,242.41,0,0,0,243.9,0Z"/></g></g></svg>